<svg width="1440" height="1053" viewBox="0 0 1440 1053" fill="none" xmlns="http://www.w3.org/2000/svg">
<ellipse cx="969" cy="139.5" rx="50" ry="44" fill="#B30909"/>
<ellipse cx="47" cy="732.5" rx="92" ry="84" fill="#FFEC3C"/>
<ellipse cx="27" cy="618.5" rx="86" ry="80" fill="#611093"/>
<ellipse cx="518" cy="257.5" rx="99" ry="101" fill="#611093"/>
<ellipse cx="1019" cy="934.5" rx="126" ry="118" fill="#B30909"/>
<ellipse cx="27" cy="488.5" rx="126" ry="118" fill="#B30909"/>
<ellipse cx="1447" cy="542.5" rx="92" ry="84" fill="#FFEC3C"/>
<ellipse cx="1406" cy="684.5" rx="111" ry="110" fill="#081A77"/>
<ellipse cx="1148" cy="183.5" rx="167" ry="157" fill="#611093"/>
<path d="M483 116C483 178.132 433.304 228.5 372 228.5C310.696 228.5 261 178.132 261 116C261 53.8682 310.696 0 372 0C433.304 0 483 53.8682 483 116Z" fill="#081A77"/>
</svg>
