<svg xmlns="http://www.w3.org/2000/svg" xmlns:xlink="http://www.w3.org/1999/xlink" width="524" zoomAndPan="magnify" viewBox="0 0 392.88 91.5" height="122" preserveAspectRatio="xMidYMid meet" version="1.0"><defs><g/></defs><path stroke-linecap="butt" transform="matrix(0.745924, 0, 0, 0.745924, 45.669007, 21.035095)" fill="none" stroke-linejoin="miter" d="M 90.427574 53.771487 L 116.333996 7.55154 L 97.031172 7.55154 L 81.472656 41.208418 L 65.91414 7.55154 L 46.579895 7.55154 L 72.491553 53.771487 Z M 90.684177 54.227088 L 72.229714 54.227088 L 45.799612 7.095939 L 66.2074 7.095939 L 81.472656 40.134875 L 96.737911 7.095939 L 117.114278 7.095939 Z M 141.784817 53.771487 L 141.784817 7.520119 L 122.644333 7.520119 L 122.644333 53.771487 Z M 142.240418 54.227088 L 122.188732 54.227088 L 122.188732 7.064518 L 142.240418 7.064518 Z M 178.075802 54.782189 C 184.365192 54.782189 189.429172 54.106642 193.257269 52.760786 C 197.085366 51.420167 200.00226 49.571578 201.997479 47.230731 C 203.992697 44.884647 205.32808 42.182461 205.99839 39.124173 C 206.108362 38.453864 206.16073 37.799264 206.16073 37.170849 C 206.16073 35.002816 205.553262 33.211833 204.338326 31.803135 C 202.756814 29.933599 200.546887 28.524902 197.719018 27.571805 C 194.885912 26.613472 191.838098 25.943162 188.570338 25.550402 C 185.302578 25.16288 182.223343 24.880093 179.327396 24.707279 C 176.431448 24.534464 174.205811 24.314519 172.65572 24.052679 C 171.100392 23.796076 170.325346 23.340475 170.325346 22.685876 C 170.325346 22.492114 170.393425 22.28788 170.524344 22.067934 C 172.105856 19.789929 174.624754 18.653544 178.075802 18.653544 C 181.521613 18.653544 184.019564 19.758508 185.559181 21.973672 L 205.935548 21.973672 C 205.307133 19.088198 203.992697 16.469801 201.997479 14.128954 C 200.00226 11.78287 197.085366 9.939518 193.257269 8.593662 C 189.429172 7.247806 184.365192 6.577496 178.075802 6.577496 C 171.781175 6.577496 166.717195 7.247806 162.889098 8.593662 C 159.061002 9.939518 156.144107 11.78287 154.148888 14.128954 C 152.15367 16.469801 150.818287 19.171987 150.147977 22.230275 C 150.079899 22.795849 150.048478 23.340475 150.048478 23.858918 C 150.048478 29.912652 154.745883 33.667434 164.140692 35.123263 C 168.419153 35.772625 172.488142 36.186332 176.34766 36.359146 C 179.453079 36.511013 181.809636 36.736195 183.427806 37.039929 C 185.045975 37.343663 185.852442 37.856869 185.852442 38.57431 C 185.852442 38.789019 185.779126 39.029911 185.627259 39.286514 C 184.040511 41.56452 181.521613 42.706141 178.075802 42.706141 C 174.624754 42.706141 172.126804 41.601177 170.587186 39.386013 L 150.210819 39.386013 C 150.839234 42.271487 152.15367 44.884647 154.148888 47.230731 C 156.144107 49.571578 159.061002 51.420167 162.889098 52.760786 C 166.717195 54.106642 171.781175 54.782189 178.075802 54.782189 Z M 178.075802 55.23779 C 171.739281 55.23779 166.622933 54.55177 162.726758 53.184966 C 158.830583 51.818163 155.866557 49.932917 153.824207 47.523992 C 151.787094 45.115066 150.383633 42.25054 149.624298 38.930412 L 170.849026 38.930412 C 172.388643 41.145576 174.797569 42.25054 178.075802 42.25054 C 181.348798 42.25054 183.736777 41.176997 185.2345 39.029911 C 185.344473 38.85186 185.39684 38.699993 185.39684 38.57431 C 185.39684 37.705002 182.380447 37.118481 176.34766 36.814747 C 172.441011 36.641933 168.351075 36.228226 164.077851 35.578864 C 154.421202 34.08114 149.592877 30.174492 149.592877 23.858918 C 149.592877 23.319528 149.624298 22.753954 149.692376 22.167433 C 150.40458 19.02012 151.787094 16.244619 153.824207 13.835693 C 155.866557 11.426768 158.830583 9.536285 162.726758 8.169482 C 166.622933 6.802678 171.739281 6.121895 178.075802 6.121895 C 184.407086 6.121895 189.523434 6.802678 193.419609 8.169482 C 197.315785 9.536285 200.285047 11.426768 202.32216 13.835693 C 204.36451 16.244619 205.762734 19.109145 206.522069 22.429273 L 185.297341 22.429273 C 183.757724 20.214109 181.348798 19.109145 178.075802 19.109145 C 174.797569 19.109145 172.40959 20.182688 170.911867 22.329774 C 170.828078 22.460694 170.780947 22.58114 170.780947 22.685876 C 170.780947 23.078635 171.493151 23.392843 172.912323 23.633736 C 174.336731 23.869391 176.49429 24.078863 179.390237 24.251677 C 182.286185 24.424492 185.38113 24.707279 188.669837 25.094801 C 191.953307 25.487561 195.037779 26.168344 197.912779 27.147625 C 200.787779 28.121668 203.039601 29.577497 204.668244 31.509874 C 205.966969 33.007598 206.616331 34.892844 206.616331 37.170849 C 206.616331 37.825448 206.563963 38.495758 206.453991 39.192252 C 205.741787 42.334328 204.36451 45.115066 202.32216 47.523992 C 200.285047 49.932917 197.315785 51.818163 193.419609 53.184966 C 189.523434 54.55177 184.407086 55.23779 178.075802 55.23779 Z M 287.011599 53.771487 L 257.423711 7.55154 L 239.48769 7.55154 L 209.905038 53.771487 L 229.202626 53.771487 L 233.596296 46.125768 L 263.315104 46.125768 L 267.708775 53.771487 Z M 256.187827 34.568162 L 248.474029 21.09389 L 240.72881 34.568162 Z M 255.632727 2.864609 C 256.219248 2.864609 256.763874 2.801768 257.26137 2.670848 C 259.864057 2.06338 261.168019 -0.659754 261.168019 -5.498552 L 255.208546 -5.498552 C 255.208546 -4.587349 254.951944 -4.027012 254.428264 -3.822777 C 253.909821 -3.618542 253.396616 -3.513806 252.89912 -3.513806 C 252.008865 -3.513806 250.511142 -3.807067 248.405951 -4.393588 C 245.693291 -5.17387 243.60381 -5.56663 242.127034 -5.56663 C 241.367699 -5.56663 240.639785 -5.477604 239.943291 -5.30479 C 237.16779 -4.608296 235.780039 -1.885163 235.780039 2.864609 L 241.702854 2.864609 C 241.765695 1.021257 242.52503 0.0995817 243.980859 0.0995817 C 245.326715 0.0995817 247.075805 0.513288 249.222891 1.335465 C 252.087417 2.35664 254.224029 2.864609 255.632727 2.864609 Z M 287.854723 54.227088 L 267.446935 54.227088 L 263.053264 46.581369 L 233.858136 46.581369 L 229.464465 54.227088 L 209.056678 54.227088 L 239.231087 7.095939 L 257.68555 7.095939 Z M 256.968109 35.023763 L 239.943291 35.023763 L 248.474029 20.182688 Z M 255.632727 3.32021 C 254.155951 3.32021 251.977444 2.812241 249.091971 1.791066 C 246.965832 0.96889 245.263874 0.555183 243.980859 0.555183 C 242.828765 0.555183 242.221296 1.476859 242.158455 3.32021 L 235.324438 3.32021 C 235.324438 -1.974189 236.822161 -5.001056 239.817608 -5.760391 C 240.550759 -5.933205 241.325805 -6.022231 242.127034 -6.022231 C 243.645704 -6.022231 245.782317 -5.629471 248.53687 -4.849189 C 250.600167 -4.262668 252.055996 -3.969408 252.89912 -3.969408 C 253.333774 -3.969408 253.752718 -4.053196 254.150714 -4.215537 C 254.553947 -4.377878 254.752945 -4.959162 254.752945 -5.954153 L 261.62362 -5.954153 C 261.62362 -0.549781 260.214922 2.477086 257.39229 3.126449 C 256.826716 3.257369 256.240195 3.32021 255.632727 3.32021 Z M 323.234506 54.782189 C 334.713559 54.782189 343.155271 52.415158 348.554406 47.686332 C 353.330363 43.538791 355.718341 37.867343 355.718341 30.661514 C 355.718341 23.481869 353.330363 17.805184 348.554406 13.641932 C 343.155271 8.928817 334.713559 6.577496 323.234506 6.577496 C 311.734505 6.577496 303.292793 8.928817 297.909368 13.641932 C 293.138648 17.805184 290.75067 23.481869 290.75067 30.661514 C 290.75067 37.867343 293.138648 43.538791 297.909368 47.686332 C 303.292793 52.415158 311.734505 54.782189 323.234506 54.782189 Z M 323.234506 42.25054 C 327.900489 42.25054 331.314879 40.915157 333.488149 38.244392 C 335.221528 36.118253 336.090836 33.594119 336.090836 30.661514 C 336.090836 27.755093 335.221528 25.225721 333.488149 23.078635 C 331.314879 20.40787 327.900489 19.072488 323.234506 19.072488 C 318.568522 19.072488 315.138421 20.40787 312.949441 23.078635 C 311.210826 25.225721 310.341518 27.755093 310.341518 30.661514 C 310.341518 33.594119 311.210826 36.118253 312.949441 38.244392 C 315.138421 40.915157 318.568522 42.25054 323.234506 42.25054 Z M 323.234506 55.23779 C 311.624532 55.23779 303.072847 52.839338 297.584687 48.042434 C 292.724941 43.790157 290.295069 37.998263 290.295069 30.661514 C 290.295069 23.330002 292.724941 17.543344 297.584687 13.312014 C 303.072847 8.520347 311.624532 6.121895 323.234506 6.121895 C 334.818295 6.121895 343.359506 8.520347 348.847667 13.312014 C 353.733596 17.543344 356.173942 23.330002 356.173942 30.661514 C 356.173942 37.998263 353.733596 43.790157 348.847667 48.042434 C 343.359506 52.839338 334.818295 55.23779 323.234506 55.23779 Z M 323.234506 42.706141 C 318.416655 42.706141 314.876582 41.31839 312.62476 38.537652 C 310.797119 36.327725 309.885917 33.698854 309.885917 30.661514 C 309.885917 27.64512 310.797119 25.021486 312.62476 22.785375 C 314.876582 20.009874 318.416655 18.616887 323.234506 18.616887 C 328.031409 18.616887 331.566245 20.009874 333.844251 22.785375 C 335.645708 25.021486 336.546437 27.64512 336.546437 30.661514 C 336.546437 33.698854 335.645708 36.327725 333.844251 38.537652 C 331.566245 41.31839 328.031409 42.706141 323.234506 42.706141 Z M 323.234506 42.706141 " stroke="#ffffff" stroke-width="3.333315" stroke-opacity="1" stroke-miterlimit="4"/><g fill="#ffec3c" fill-opacity="1"><g transform="translate(15.052283, 67.232617)"><g><path d="M 21.4375 1.40625 C 20.664062 1.195312 19.960938 0.738281 19.328125 0.03125 C 17.992188 0.269531 16.46875 0.390625 14.75 0.390625 C 9.925781 0.390625 6.378906 -0.597656 4.109375 -2.578125 C 2.097656 -4.335938 1.09375 -6.738281 1.09375 -9.78125 C 1.09375 -12.800781 2.097656 -15.191406 4.109375 -16.953125 C 6.378906 -18.941406 9.925781 -19.9375 14.75 -19.9375 C 19.570312 -19.9375 23.117188 -18.941406 25.390625 -16.953125 C 27.410156 -15.191406 28.421875 -12.800781 28.421875 -9.78125 C 28.421875 -6.226562 27.054688 -3.566406 24.328125 -1.796875 C 25.015625 -1.285156 25.664062 -0.941406 26.28125 -0.765625 Z M 14.75 -4.84375 C 15.144531 -4.84375 15.515625 -4.863281 15.859375 -4.90625 C 15.335938 -5.632812 14.78125 -6.195312 14.1875 -6.59375 L 16.5625 -7.953125 C 17.289062 -7.703125 18.101562 -7.191406 19 -6.421875 C 19.8125 -7.335938 20.21875 -8.457031 20.21875 -9.78125 C 20.21875 -11.019531 19.847656 -12.09375 19.109375 -13 C 18.179688 -14.132812 16.726562 -14.703125 14.75 -14.703125 C 12.769531 -14.703125 11.316406 -14.132812 10.390625 -13 C 9.640625 -12.09375 9.265625 -11.019531 9.265625 -9.78125 C 9.265625 -8.53125 9.640625 -7.453125 10.390625 -6.546875 C 11.316406 -5.410156 12.769531 -4.84375 14.75 -4.84375 Z M 14.75 -4.84375 "/></g></g></g><g fill="#ffec3c" fill-opacity="1"><g transform="translate(44.554895, 67.232617)"><g><path d="M 13.71875 0.421875 C 8.957031 0.421875 5.609375 -0.566406 3.671875 -2.546875 C 2.035156 -4.203125 1.21875 -6.597656 1.21875 -9.734375 L 1.21875 -19.5 L 9.40625 -19.5 L 9.40625 -9.734375 C 9.40625 -8.367188 9.632812 -7.296875 10.09375 -6.515625 C 10.757812 -5.378906 11.96875 -4.8125 13.71875 -4.8125 C 15.488281 -4.8125 16.695312 -5.378906 17.34375 -6.515625 C 17.8125 -7.328125 18.046875 -8.398438 18.046875 -9.734375 L 18.046875 -19.5 L 26.21875 -19.5 L 26.21875 -9.625 C 26.21875 -6.5625 25.410156 -4.203125 23.796875 -2.546875 C 21.847656 -0.566406 18.488281 0.421875 13.71875 0.421875 Z M 13.71875 0.421875 "/></g></g></g><g fill="#ffec3c" fill-opacity="1"><g transform="translate(72.004566, 67.232617)"><g><path d="M 32.765625 0 L 24.46875 0 L 22.640625 -3.1875 L 10.328125 -3.1875 L 8.5 0 L 0.203125 0 L 12.6875 -19.5 L 20.28125 -19.5 Z M 19.875 -8.015625 L 16.484375 -13.9375 L 13.09375 -8.015625 Z M 19.875 -8.015625 "/></g></g></g><g fill="#ffec3c" fill-opacity="1"><g transform="translate(104.974081, 67.232617)"><g><path d="M 15.234375 0 L 2.171875 0 L 2.171875 -19.515625 L 15.234375 -19.515625 C 20.566406 -19.515625 24.40625 -18.765625 26.75 -17.265625 C 28.632812 -16.054688 29.707031 -14.414062 29.96875 -12.34375 C 30.082031 -11.445312 30.140625 -10.582031 30.140625 -9.75 C 30.140625 -8.925781 30.082031 -8.0625 29.96875 -7.15625 C 29.851562 -6.257812 29.550781 -5.382812 29.0625 -4.53125 C 28.570312 -3.6875 27.796875 -2.921875 26.734375 -2.234375 C 25.671875 -1.554688 24.210938 -1.015625 22.359375 -0.609375 C 20.503906 -0.203125 18.128906 0 15.234375 0 Z M 14.453125 -4.828125 C 18.609375 -4.828125 20.960938 -5.878906 21.515625 -7.984375 C 21.648438 -8.566406 21.71875 -9.15625 21.71875 -9.75 C 21.71875 -10.34375 21.644531 -10.929688 21.5 -11.515625 C 21.351562 -12.109375 21.035156 -12.640625 20.546875 -13.109375 C 20.066406 -13.585938 19.335938 -13.96875 18.359375 -14.25 C 17.390625 -14.539062 16.085938 -14.6875 14.453125 -14.6875 L 10.359375 -14.6875 L 10.359375 -4.828125 Z M 14.453125 -4.828125 "/></g></g></g><g fill="#ffec3c" fill-opacity="1"><g transform="translate(136.20335, 67.232617)"><g><path d="M 28.8125 0 L 21.078125 0 C 20.722656 -0.488281 20.472656 -1.113281 20.328125 -1.875 C 20.203125 -2.46875 20.007812 -3.046875 19.75 -3.609375 C 19.5 -4.171875 19.0625 -4.640625 18.4375 -5.015625 C 17.820312 -5.398438 16.898438 -5.601562 15.671875 -5.625 L 10.359375 -5.625 L 10.359375 0 L 2.171875 0 L 2.171875 -19.515625 L 15.484375 -19.515625 C 18.660156 -19.515625 21.222656 -19.273438 23.171875 -18.796875 C 25.128906 -18.316406 26.554688 -17.566406 27.453125 -16.546875 C 28.359375 -15.523438 28.8125 -14.195312 28.8125 -12.5625 C 28.8125 -11.195312 28.5 -10.046875 27.875 -9.109375 C 27.257812 -8.171875 26.28125 -7.429688 24.9375 -6.890625 C 26.226562 -6.359375 27.066406 -5.71875 27.453125 -4.96875 C 27.835938 -4.21875 28.078125 -3.394531 28.171875 -2.5 C 28.265625 -1.707031 28.476562 -0.875 28.8125 0 Z M 10.359375 -10.4375 L 15.03125 -10.453125 C 16.34375 -10.453125 17.375 -10.507812 18.125 -10.625 C 18.875 -10.75 19.425781 -10.910156 19.78125 -11.109375 C 20.144531 -11.316406 20.375 -11.546875 20.46875 -11.796875 C 20.570312 -12.046875 20.625 -12.300781 20.625 -12.5625 C 20.625 -12.820312 20.570312 -13.078125 20.46875 -13.328125 C 20.375 -13.585938 20.144531 -13.816406 19.78125 -14.015625 C 19.425781 -14.222656 18.875 -14.382812 18.125 -14.5 C 17.375 -14.625 16.34375 -14.6875 15.03125 -14.6875 L 10.359375 -14.6875 Z M 10.359375 -10.4375 "/></g></g></g><g fill="#ffec3c" fill-opacity="1"><g transform="translate(166.100242, 67.232617)"><g><path d="M 32.765625 0 L 24.46875 0 L 22.640625 -3.1875 L 10.328125 -3.1875 L 8.5 0 L 0.203125 0 L 12.6875 -19.5 L 20.28125 -19.5 Z M 19.875 -8.015625 L 16.484375 -13.9375 L 13.09375 -8.015625 Z M 19.875 -8.015625 "/></g></g></g><g fill="#ffec3c" fill-opacity="1"><g transform="translate(199.069757, 67.232617)"><g><path d="M 31.125 0 L 21.390625 0 L 10.359375 -13.203125 L 10.359375 0 L 2.171875 0 L 2.171875 -19.515625 L 11.90625 -19.515625 L 22.9375 -6.375 L 22.9375 -19.515625 L 31.125 -19.515625 Z M 31.125 0 "/></g></g></g><g fill="#ffec3c" fill-opacity="1"><g transform="translate(232.365579, 67.232617)"><g><path d="M 14.75 0.421875 C 9.925781 0.421875 6.378906 -0.570312 4.109375 -2.5625 C 2.097656 -4.3125 1.09375 -6.703125 1.09375 -9.734375 C 1.09375 -12.765625 2.097656 -15.160156 4.109375 -16.921875 C 6.378906 -18.910156 9.925781 -19.90625 14.75 -19.90625 C 17.5 -19.90625 19.785156 -19.597656 21.609375 -18.984375 C 23.429688 -18.367188 24.859375 -17.523438 25.890625 -16.453125 C 26.929688 -15.390625 27.640625 -14.164062 28.015625 -12.78125 L 19.265625 -12.78125 C 18.347656 -14.039062 16.84375 -14.671875 14.75 -14.671875 C 12.769531 -14.671875 11.316406 -14.101562 10.390625 -12.96875 C 9.640625 -12.050781 9.265625 -10.972656 9.265625 -9.734375 C 9.265625 -8.492188 9.640625 -7.421875 10.390625 -6.515625 C 11.316406 -5.378906 12.769531 -4.8125 14.75 -4.8125 C 16.34375 -4.8125 17.539062 -4.945312 18.34375 -5.21875 C 19.144531 -5.5 19.734375 -5.863281 20.109375 -6.3125 L 16.90625 -6.3125 L 16.90625 -9.734375 L 28.015625 -9.734375 L 28.015625 0.015625 L 24.625 0.015625 L 23.921875 -1.875 C 21.753906 -0.34375 18.695312 0.421875 14.75 0.421875 Z M 14.75 0.421875 "/></g></g></g><g fill="#ffec3c" fill-opacity="1"><g transform="translate(262.017738, 67.232617)"><g><path d="M 13.71875 0.421875 C 8.957031 0.421875 5.609375 -0.566406 3.671875 -2.546875 C 2.035156 -4.203125 1.21875 -6.597656 1.21875 -9.734375 L 1.21875 -19.5 L 9.40625 -19.5 L 9.40625 -9.734375 C 9.40625 -8.367188 9.632812 -7.296875 10.09375 -6.515625 C 10.757812 -5.378906 11.96875 -4.8125 13.71875 -4.8125 C 15.488281 -4.8125 16.695312 -5.378906 17.34375 -6.515625 C 17.8125 -7.328125 18.046875 -8.398438 18.046875 -9.734375 L 18.046875 -19.5 L 26.21875 -19.5 L 26.21875 -9.625 C 26.21875 -6.5625 25.410156 -4.203125 23.796875 -2.546875 C 21.847656 -0.566406 18.488281 0.421875 13.71875 0.421875 Z M 13.71875 0.421875 "/></g></g></g><g fill="#ffec3c" fill-opacity="1"><g transform="translate(289.467409, 67.232617)"><g><path d="M 24.953125 0 L 2.171875 0 L 2.171875 -19.515625 L 10.359375 -19.515625 L 10.359375 -4.828125 L 24.953125 -4.828125 Z M 24.953125 0 "/></g></g></g><g fill="#ffec3c" fill-opacity="1"><g transform="translate(314.959303, 67.232617)"><g><path d="M 32.765625 0 L 24.46875 0 L 22.640625 -3.1875 L 10.328125 -3.1875 L 8.5 0 L 0.203125 0 L 12.6875 -19.5 L 20.28125 -19.5 Z M 19.875 -8.015625 L 16.484375 -13.9375 L 13.09375 -8.015625 Z M 19.875 -8.015625 "/></g></g></g><g fill="#ffec3c" fill-opacity="1"><g transform="translate(347.928829, 67.232617)"><g><path d="M 28.8125 0 L 21.078125 0 C 20.722656 -0.488281 20.472656 -1.113281 20.328125 -1.875 C 20.203125 -2.46875 20.007812 -3.046875 19.75 -3.609375 C 19.5 -4.171875 19.0625 -4.640625 18.4375 -5.015625 C 17.820312 -5.398438 16.898438 -5.601562 15.671875 -5.625 L 10.359375 -5.625 L 10.359375 0 L 2.171875 0 L 2.171875 -19.515625 L 15.484375 -19.515625 C 18.660156 -19.515625 21.222656 -19.273438 23.171875 -18.796875 C 25.128906 -18.316406 26.554688 -17.566406 27.453125 -16.546875 C 28.359375 -15.523438 28.8125 -14.195312 28.8125 -12.5625 C 28.8125 -11.195312 28.5 -10.046875 27.875 -9.109375 C 27.257812 -8.171875 26.28125 -7.429688 24.9375 -6.890625 C 26.226562 -6.359375 27.066406 -5.71875 27.453125 -4.96875 C 27.835938 -4.21875 28.078125 -3.394531 28.171875 -2.5 C 28.265625 -1.707031 28.476562 -0.875 28.8125 0 Z M 10.359375 -10.4375 L 15.03125 -10.453125 C 16.34375 -10.453125 17.375 -10.507812 18.125 -10.625 C 18.875 -10.75 19.425781 -10.910156 19.78125 -11.109375 C 20.144531 -11.316406 20.375 -11.546875 20.46875 -11.796875 C 20.570312 -12.046875 20.625 -12.300781 20.625 -12.5625 C 20.625 -12.820312 20.570312 -13.078125 20.46875 -13.328125 C 20.375 -13.585938 20.144531 -13.816406 19.78125 -14.015625 C 19.425781 -14.222656 18.875 -14.382812 18.125 -14.5 C 17.375 -14.625 16.34375 -14.6875 15.03125 -14.6875 L 10.359375 -14.6875 Z M 10.359375 -10.4375 "/></g></g></g></svg>